<?xml version="1.0" encoding="UTF-8" standalone="no" ?>
<!DOCTYPE svg PUBLIC "-//W3C//DTD SVG 1.1//EN" "http://www.w3.org/Graphics/SVG/1.1/DTD/svg11.dtd">
<svg xmlns="http://www.w3.org/2000/svg" xmlns:xlink="http://www.w3.org/1999/xlink" version="1.1" width="1080" height="1080" viewBox="0 0 1080 1080" xml:space="preserve">
<desc>Created with Fabric.js 5.2.4</desc>
<defs>
</defs>
<g transform="matrix(1 0 0 1 540 540)" id="4822b214-16a7-4b74-b399-86562d2e76d4"  >
</g>
<g transform="matrix(1 0 0 1 540 540)" id="522330b4-5a87-4382-9bfe-a04ad8139343"  >
<rect style="stroke: none; stroke-width: 1; stroke-dasharray: none; stroke-linecap: butt; stroke-dashoffset: 0; stroke-linejoin: miter; stroke-miterlimit: 4; fill: rgb(255,255,255); fill-rule: nonzero; opacity: 1;" vector-effect="non-scaling-stroke"  x="-540" y="-540" rx="0" ry="0" width="1080" height="1080" />
</g>
<g transform="matrix(7.12 0 0 7.04 540 540)"  >
<path style="stroke: rgb(0,0,0); stroke-width: 0; stroke-dasharray: none; stroke-linecap: butt; stroke-dashoffset: 0; stroke-linejoin: miter; stroke-miterlimit: 4; fill: rgb(0,0,0); fill-rule: nonzero; opacity: 1;" vector-effect="non-scaling-stroke"  transform=" translate(-61.44, -59.48)" d="M 3.27 0 L 119.61 0 C 120.47807274822736 -0.0026669090614757254 121.31136046774982 0.3409934850371076 121.92518349135635 0.9548165086436451 C 122.53900651496289 1.5686395322501827 122.88266690906147 2.401927251772641 122.88 3.2700000000000005 L 122.88 115.69 C 122.88266690906147 116.55807274822736 122.53900651496289 117.39136046774982 121.92518349135635 118.00518349135635 C 121.31136046774981 118.61900651496289 120.47807274822736 118.96266690906147 119.61 118.96 L 3.27 118.96 C 2.4019272517726407 118.96266690906147 1.5686395322501827 118.61900651496289 0.9548165086436451 118.00518349135635 C 0.34099348503710747 117.39136046774982 -0.0026669090614759305 116.55807274822736 -4.440892098500626e-16 115.69 L 0 3.27 C -0.0026669090614768304 2.40192725177264 0.3409934850371059 1.568639532250181 0.9548165086436433 0.9548165086436433 C 1.5686395322501807 0.3409934850371057 2.4019272517726407 -0.0026669090614763746 3.2700000000000005 4.440892098500626e-16 Z M 116.34 81.49 L 84.1 81.49 L 84.1 112.41999999999999 L 116.34 112.41999999999999 L 116.34 81.49 Z M 116.34 44.01 L 84.1 44.01 L 84.1 75 L 116.34 75 L 116.34 44 Z M 84.1 6.54 L 84.1 37.47 L 116.34 37.47 L 116.34 6.54 Z M 77.56 81.49 L 45.32 81.49 L 45.32 112.41999999999999 L 77.56 112.41999999999999 L 77.56 81.49 Z M 77.56 44.01 L 45.32 44.01 L 45.32 75 L 77.56 75 L 77.56 44 Z M 45.32 6.54 L 45.32 37.47 L 77.56 37.47 L 77.56 6.54 Z M 38.78 81.49 L 6.54 81.49 L 6.54 112.41999999999999 L 38.78 112.41999999999999 L 38.78 81.49 Z M 38.78 44.01 L 6.54 44.01 L 6.54 75 L 38.78 75 L 38.78 44 Z M 38.78 6.539999999999999 L 6.54 6.539999999999999 L 6.54 37.47 L 38.78 37.47 L 38.78 6.54 Z" stroke-linecap="round" />
</g>
</svg>